<?xml version="1.0" encoding="utf-8"?>
<!-- Generator: Adobe Illustrator 22.0.0, SVG Export Plug-In . SVG Version: 6.00 Build 0)  -->
<svg version="1.1" id="图层_1" xmlns="http://www.w3.org/2000/svg" xmlns:xlink="http://www.w3.org/1999/xlink" x="0px" y="0px"
	 viewBox="0 0 1024 1024" style="enable-background:new 0 0 1024 1024;" xml:space="preserve">
<style type="text/css">
	.st0{display:none;fill:#FFFFFF;stroke:#231815;stroke-width:0.1;stroke-miterlimit:10;}
	.st1{fill:url(#SVGID_1_);}
	.st2{fill:#E6EAF0;}
	.st3{fill:#D0D6E0;}
	.st4{fill:url(#SVGID_2_);}
	.st5{fill:url(#SVGID_3_);}
	.st6{fill:url(#SVGID_4_);}
	.st7{fill:url(#SVGID_5_);}
	.st8{fill:url(#SVGID_6_);}
	.st9{fill:url(#SVGID_7_);}
	.st10{fill:url(#SVGID_8_);}
	.st11{fill:url(#SVGID_9_);}
	.st12{fill:url(#SVGID_10_);}
	.st13{fill:url(#SVGID_11_);}
	.st14{fill:url(#SVGID_12_);}
	.st15{opacity:0.3;fill:url(#SVGID_13_);}
	.st16{fill:#FFFFFF;}
	.st17{fill:url(#SVGID_14_);}
	.st18{opacity:0.3;fill:url(#SVGID_15_);}
	.st19{fill:url(#SVGID_16_);}
	.st20{fill:url(#SVGID_17_);}
	.st21{fill:url(#SVGID_18_);}
	.st22{fill:url(#SVGID_19_);}
	.st23{fill:url(#SVGID_20_);}
	.st24{fill:url(#SVGID_21_);}
</style>
<rect x="-0.3" class="st0" width="1024.6" height="1024.6"/>
<g>
	<linearGradient id="SVGID_1_" gradientUnits="userSpaceOnUse" x1="511.9536" y1="663.9636" x2="511.9536" y2="979.3966">
		<stop  offset="0" style="stop-color:#DEE3F0"/>
		<stop  offset="3.981841e-02" style="stop-color:#E1E6F1;stop-opacity:0.9602"/>
		<stop  offset="0.3162" style="stop-color:#F2F4F9;stop-opacity:0.6838"/>
		<stop  offset="0.6198" style="stop-color:#FCFCFE;stop-opacity:0.3802"/>
		<stop  offset="1" style="stop-color:#FFFFFF;stop-opacity:0"/>
	</linearGradient>
	<ellipse class="st1" cx="512" cy="821.7" rx="475.5" ry="157.7"/>
	<g>
		<path class="st2" d="M191.9,675.8c0,23.8-19.3,43.2-43.2,43.2s-43.2-19.3-43.2-43.2s19.3-71.6,43.2-71.6S191.9,651.9,191.9,675.8z
			"/>
		<path class="st3" d="M168.5,669.9c-1.4-0.7-3-0.1-3.7,1.3l-13.3,26.9v-50.7c0-1.5-1.2-2.8-2.8-2.8s-2.8,1.2-2.8,2.8v26l-14.2-14.2
			c-1.1-1.1-2.8-1.1-3.9,0c-1.1,1.1-1.1,2.8,0,3.9l17.1,17.1c0.3,0.3,0.6,0.3,1,0.4v75.1c0,1.5,1.2,2.8,2.8,2.8s2.8-1.2,2.8-2.8
			v-45.2l18.2-36.9C170.4,672.3,169.8,670.6,168.5,669.9z"/>
	</g>
	<g>
		<path class="st2" d="M880.4,681c0,19.5-15.8,35.3-35.3,35.3s-35.3-15.8-35.3-35.3c0-19.5,15.8-58.5,35.3-58.5
			S880.4,661.6,880.4,681z"/>
		<path class="st3" d="M861.2,676.3c-1.1-0.5-2.5-0.1-3,1l-10.8,22v-41.5c0-1.2-1-2.3-2.3-2.3s-2.3,1-2.3,2.3V679l-11.6-11.6
			c-0.9-0.9-2.3-0.9-3.2,0c-0.9,0.9-0.9,2.3,0,3.2l14,14c0.2,0.2,0.5,0.2,0.8,0.3v61.4c0,1.2,1,2.3,2.3,2.3s2.3-1,2.3-2.3v-36.9
			l14.9-30.1C862.8,678.2,862.3,676.8,861.2,676.3z"/>
	</g>
	<g>
		<path class="st2" d="M927.1,767.1c0,14.5-11.8,26.3-26.3,26.3s-26.3-11.8-26.3-26.3s11.8-43.7,26.3-43.7S927.1,752.6,927.1,767.1z
			"/>
		<path class="st3" d="M912.8,763.6c-0.8-0.4-1.8-0.1-2.2,0.8l-8.1,16.4v-30.9c0-0.9-0.8-1.7-1.7-1.7c-0.9,0-1.7,0.8-1.7,1.7v15.9
			l-8.7-8.7c-0.7-0.7-1.7-0.7-2.4,0c-0.7,0.7-0.7,1.7,0,2.4l10.4,10.4c0.2,0.2,0.4,0.2,0.6,0.2v45.8c0,0.9,0.8,1.7,1.7,1.7
			c0.9,0,1.7-0.8,1.7-1.7v-27.5l11.1-22.5C914,765,913.6,764,912.8,763.6z"/>
	</g>
</g>
<g>
	<linearGradient id="SVGID_2_" gradientUnits="userSpaceOnUse" x1="499.7643" y1="826.7535" x2="499.7643" y2="780.8171">
		<stop  offset="0" style="stop-color:#BCC0CC"/>
		<stop  offset="0.9894" style="stop-color:#FFFFFF;stop-opacity:0"/>
	</linearGradient>
	<polygon class="st4" points="479,826.8 435.1,780.8 494.4,781.5 564.4,814 	"/>
	<linearGradient id="SVGID_3_" gradientUnits="userSpaceOnUse" x1="422.238" y1="819.6609" x2="422.238" y2="729.6575">
		<stop  offset="0" style="stop-color:#BCC0CC"/>
		<stop  offset="0.9894" style="stop-color:#FFFFFF;stop-opacity:0"/>
	</linearGradient>
	<polygon class="st5" points="264.6,819.7 186.8,729.7 657.7,729.7 657.7,811.6 289.5,811.6 296.9,819.7 	"/>
	<g>
		<linearGradient id="SVGID_4_" gradientUnits="userSpaceOnUse" x1="280.747" y1="439.5114" x2="280.747" y2="417.9571">
			<stop  offset="0" style="stop-color:#E1E7F2"/>
			<stop  offset="1" style="stop-color:#B7BFC9"/>
		</linearGradient>
		<rect x="264.6" y="418" class="st6" width="32.2" height="21.6"/>
		<linearGradient id="SVGID_5_" gradientUnits="userSpaceOnUse" x1="658.3457" y1="439.5114" x2="658.3457" y2="417.9571">
			<stop  offset="0" style="stop-color:#E1E7F2"/>
			<stop  offset="1" style="stop-color:#B7BFC9"/>
		</linearGradient>
		<rect x="642.2" y="418" class="st7" width="32.2" height="21.6"/>
	</g>
	<g>
		<linearGradient id="SVGID_6_" gradientUnits="userSpaceOnUse" x1="280.747" y1="630.5064" x2="280.747" y2="608.9521">
			<stop  offset="0" style="stop-color:#E1E7F2"/>
			<stop  offset="1" style="stop-color:#B7BFC9"/>
		</linearGradient>
		<rect x="264.6" y="609" class="st8" width="32.2" height="21.6"/>
		<linearGradient id="SVGID_7_" gradientUnits="userSpaceOnUse" x1="658.3457" y1="630.5064" x2="658.3457" y2="608.9521">
			<stop  offset="0" style="stop-color:#E1E7F2"/>
			<stop  offset="1" style="stop-color:#B7BFC9"/>
		</linearGradient>
		<rect x="642.2" y="609" class="st9" width="32.2" height="21.6"/>
	</g>
	<g>
		<linearGradient id="SVGID_8_" gradientUnits="userSpaceOnUse" x1="280.747" y1="819.6609" x2="280.747" y2="798.1066">
			<stop  offset="0" style="stop-color:#E1E7F2"/>
			<stop  offset="1" style="stop-color:#B7BFC9"/>
		</linearGradient>
		<rect x="264.6" y="798.1" class="st10" width="32.2" height="21.6"/>
		<linearGradient id="SVGID_9_" gradientUnits="userSpaceOnUse" x1="658.3457" y1="819.6609" x2="658.3457" y2="798.1066">
			<stop  offset="0" style="stop-color:#E1E7F2"/>
			<stop  offset="1" style="stop-color:#B7BFC9"/>
		</linearGradient>
		<rect x="642.2" y="798.1" class="st11" width="32.2" height="21.6"/>
	</g>
	<linearGradient id="SVGID_10_" gradientUnits="userSpaceOnUse" x1="232.2673" y1="331.8831" x2="706.8254" y2="331.8831">
		<stop  offset="0" style="stop-color:#E1E7F2"/>
		<stop  offset="1" style="stop-color:#B7BFC9"/>
	</linearGradient>
	<path class="st12" d="M687.2,418H251.8c-10.8,0-19.6-8.8-19.6-19.6v-133c0-10.8,8.8-19.6,19.6-19.6h435.4
		c10.8,0,19.6,8.8,19.6,19.6v133C706.8,409.2,698.1,418,687.2,418z"/>
	<linearGradient id="SVGID_11_" gradientUnits="userSpaceOnUse" x1="232.2673" y1="525.5853" x2="706.8254" y2="525.5853">
		<stop  offset="0" style="stop-color:#E1E7F2"/>
		<stop  offset="1" style="stop-color:#B7BFC9"/>
	</linearGradient>
	<path class="st13" d="M687.2,611.7H251.8c-10.8,0-19.6-8.8-19.6-19.6v-133c0-10.8,8.8-19.6,19.6-19.6h435.4
		c10.8,0,19.6,8.8,19.6,19.6v133C706.8,602.9,698.1,611.7,687.2,611.7z"/>
	<linearGradient id="SVGID_12_" gradientUnits="userSpaceOnUse" x1="232.2673" y1="716.2097" x2="706.8254" y2="716.2097">
		<stop  offset="0" style="stop-color:#E1E7F2"/>
		<stop  offset="1" style="stop-color:#B7BFC9"/>
	</linearGradient>
	<path class="st14" d="M687.2,802.3H251.8c-10.8,0-19.6-8.8-19.6-19.6v-133c0-10.8,8.8-19.6,19.6-19.6h435.4
		c10.8,0,19.6,8.8,19.6,19.6v133C706.8,793.5,698.1,802.3,687.2,802.3z"/>
	<linearGradient id="SVGID_13_" gradientUnits="userSpaceOnUse" x1="465.2181" y1="716.2097" x2="610.0057" y2="716.2097">
		<stop  offset="0" style="stop-color:#ABB8C9"/>
		<stop  offset="1" style="stop-color:#999FAB"/>
	</linearGradient>
	<polygon class="st15" points="610,630.1 567.5,630.1 465.2,802.3 518.9,802.3 	"/>
	<circle class="st16" cx="293" cy="331.9" r="19"/>
	<circle class="st16" cx="366.7" cy="331.9" r="19"/>
	<linearGradient id="SVGID_14_" gradientUnits="userSpaceOnUse" x1="534.7755" y1="331.8831" x2="671.4213" y2="331.8831">
		<stop  offset="0" style="stop-color:#ABB8C9"/>
		<stop  offset="1" style="stop-color:#999FAB"/>
	</linearGradient>
	<path class="st17" d="M652.4,350.9h-98.6c-10.5,0-19-8.6-19-19v0c0-10.5,8.6-19,19-19h98.6c10.5,0,19,8.6,19,19v0
		C671.4,342.3,662.9,350.9,652.4,350.9z"/>
	<linearGradient id="SVGID_15_" gradientUnits="userSpaceOnUse" x1="576.598" y1="560.0627" x2="645.3234" y2="560.0627">
		<stop  offset="0" style="stop-color:#ABB8C9"/>
		<stop  offset="1" style="stop-color:#999FAB"/>
	</linearGradient>
	<path class="st18" d="M645.3,508.5c0,0-14.3,8.3-23,23.8c-8.6,15.5-45.8,79.4-45.8,79.4H611L645.3,508.5z"/>
	<circle class="st16" cx="293" cy="525.6" r="19"/>
	<circle class="st16" cx="366.7" cy="525.6" r="19"/>
	<linearGradient id="SVGID_16_" gradientUnits="userSpaceOnUse" x1="534.7755" y1="525.5853" x2="671.4213" y2="525.5853">
		<stop  offset="0" style="stop-color:#ABB8C9"/>
		<stop  offset="1" style="stop-color:#999FAB"/>
	</linearGradient>
	<path class="st19" d="M652.4,544.6h-98.6c-10.5,0-19-8.6-19-19v0c0-10.5,8.6-19,19-19h98.6c10.5,0,19,8.6,19,19v0
		C671.4,536,662.9,544.6,652.4,544.6z"/>
	<circle class="st16" cx="293" cy="716.2" r="19"/>
	<circle class="st16" cx="366.7" cy="716.2" r="19"/>
	<linearGradient id="SVGID_17_" gradientUnits="userSpaceOnUse" x1="534.7755" y1="716.1673" x2="671.4213" y2="716.1673">
		<stop  offset="0" style="stop-color:#ABB8C9"/>
		<stop  offset="1" style="stop-color:#999FAB"/>
	</linearGradient>
	<path class="st20" d="M652.4,735.2h-98.6c-10.5,0-19-8.6-19-19l0,0c0-10.5,8.6-19,19-19h98.6c10.5,0,19,8.6,19,19l0,0
		C671.4,726.6,662.9,735.2,652.4,735.2z"/>
	<linearGradient id="SVGID_18_" gradientUnits="userSpaceOnUse" x1="478.9189" y1="668.4006" x2="836.4976" y2="668.4006">
		<stop  offset="0" style="stop-color:#ECEFF5"/>
		<stop  offset="1" style="stop-color:#D8DBE3"/>
	</linearGradient>
	<path class="st21" d="M644.6,519.1L481,802.5c-5.8,10.1,1.5,22.7,13.1,22.7h327.2c11.7,0,19-12.6,13.1-22.7L670.8,519.1
		C665,509,650.4,509,644.6,519.1z"/>
	<g>
		<linearGradient id="SVGID_19_" gradientUnits="userSpaceOnUse" x1="472.0023" y1="668.4005" x2="843.4143" y2="668.4005">
			<stop  offset="0" style="stop-color:#ABB8C9"/>
			<stop  offset="1" style="stop-color:#999FAB"/>
		</linearGradient>
		<path class="st22" d="M821.3,832.2H494.1c-8,0-15.1-4.1-19.1-11s-4-15.2,0-22.1l163.6-283.4c4-6.9,11.1-11,19.1-11
			c8,0,15.1,4.1,19.1,11l163.6,283.4c4,6.9,4,15.2,0,22.1C836.4,828,829.3,832.2,821.3,832.2z M657.7,518.5c-1.4,0-5,0.4-7.1,4.1
			L487,806c-2.2,3.7-0.7,7,0,8.2s2.8,4.1,7.1,4.1h327.2c4.3,0,6.4-2.9,7.1-4.1c0.7-1.2,2.2-4.5,0-8.2L664.8,522.6
			C662.7,518.9,659.1,518.5,657.7,518.5z"/>
	</g>
	<linearGradient id="SVGID_20_" gradientUnits="userSpaceOnUse" x1="657.7082" y1="726.919" x2="657.7082" y2="630.548">
		<stop  offset="0" style="stop-color:#ABB8C9"/>
		<stop  offset="1" style="stop-color:#999FAB"/>
	</linearGradient>
	<path class="st23" d="M657.7,726.9L657.7,726.9c-4.8,0-9-2.8-9.4-6.6l-6.6-66.5c-1.2-12,5.9-23.3,16-23.3l0,0
		c10.1,0,17.2,11.3,16,23.3l-6.6,66.5C666.7,724.1,662.5,726.9,657.7,726.9z"/>
	<linearGradient id="SVGID_21_" gradientUnits="userSpaceOnUse" x1="657.7082" y1="760.3831" x2="657.7082" y2="739.949">
		<stop  offset="0" style="stop-color:#ABB8C9"/>
		<stop  offset="1" style="stop-color:#999FAB"/>
	</linearGradient>
	<circle class="st24" cx="657.7" cy="750.2" r="10.2"/>
</g>
</svg>
