<svg viewBox="0 0 1200 1200" xmlns:xlink="http://www.w3.org/1999/xlink" xmlns="http://www.w3.org/2000/svg"><defs><style>.cls-1{opacity:0.17;fill:url(#未命名的渐变_33);}.cls-13,.cls-2,.cls-3,.cls-4,.cls-5,.cls-6{opacity:0.3;}.cls-2{fill:url(#未命名的渐变_33-2);}.cls-3{fill:url(#未命名的渐变_33-3);}.cls-4{fill:url(#未命名的渐变_33-4);}.cls-5{fill:url(#未命名的渐变_162);}.cls-6{fill:url(#未命名的渐变_162-2);}.cls-7{fill:none;}.cls-8{fill:url(#未命名的渐变_69);}.cls-9{fill:#fff;}.cls-10,.cls-11{opacity:0.5;}.cls-10{fill:url(#未命名的渐变_156);}.cls-11{fill:url(#未命名的渐变_156-2);}.cls-12{fill:#c4f2e2;}.cls-13{fill:url(#未命名的渐变_33-5);}</style><linearGradient gradientUnits="userSpaceOnUse" y2="812.2" x2="600" y1="1111.45" x1="600" id="未命名的渐变_33"><stop stop-opacity="0" stop-color="#fff" offset="0"></stop><stop stop-color="#4be2ac" offset="0.77"></stop></linearGradient><linearGradient xlink:href="#未命名的渐变_33" y2="223.68" x2="937.3" y1="386.6" x1="937.3" id="未命名的渐变_33-2"></linearGradient><linearGradient xlink:href="#未命名的渐变_33" y2="429.83" x2="212.46" y1="592.75" x1="212.46" id="未命名的渐变_33-3"></linearGradient><linearGradient xlink:href="#未命名的渐变_33" y2="596.08" x2="1019.76" y1="692.5" x1="1019.76" id="未命名的渐变_33-4"></linearGradient><linearGradient gradientUnits="userSpaceOnUse" y2="360" x2="1112.04" y1="399.9" x1="1112.04" id="未命名的渐变_162"><stop stop-opacity="0.4" stop-color="#6de7bb" offset="0"></stop><stop stop-color="#55e2ac" offset="0.77"></stop></linearGradient><linearGradient xlink:href="#未命名的渐变_162" y2="227.01" x2="290.78" y1="293.5" x1="290.78" id="未命名的渐变_162-2"></linearGradient><linearGradient gradientUnits="userSpaceOnUse" y2="835.67" x2="611.77" y1="884.03" x1="611.77" id="未命名的渐变_69"><stop stop-opacity="0.02" stop-color="#009eaa" offset="0"></stop><stop stop-opacity="0.2" stop-color="#004c55" offset="0.77"></stop></linearGradient><linearGradient gradientUnits="userSpaceOnUse" y2="762.45" x2="773.08" y1="762.45" x1="464.76" id="未命名的渐变_156"><stop stop-opacity="0.62" stop-color="#6de7bb" offset="0"></stop><stop stop-color="#55e2ac" offset="0.77"></stop></linearGradient><linearGradient xlink:href="#未命名的渐变_156" y2="721.33" x2="623.84" y1="404.06" x1="623.84" id="未命名的渐变_156-2"></linearGradient><linearGradient xlink:href="#未命名的渐变_33" y2="403.41" x2="628.88" y1="720.69" x1="628.88" id="未命名的渐变_33-5"></linearGradient></defs><g id="图层_1"><path d="M1200,1111.45C1178.64,944.27,918.2,812.2,600,812.2S21.36,944.27,0,1111.45Z" class="cls-1"></path><path d="M1002.47,386.6a58.65,58.65,0,0,0,0-117.3c-1.1,0-2.13.26-3.22.32a64.75,64.75,0,0,0-123.91,0c-1.08-.06-2.11-.32-3.21-.32a58.65,58.65,0,1,0,0,117.3Z" class="cls-2"></path><path d="M277.63,592.75a58.65,58.65,0,0,0,0-117.3c-1.1,0-2.13.26-3.22.32a64.75,64.75,0,0,0-123.91,0c-1.08-.06-2.11-.32-3.21-.32a58.65,58.65,0,1,0,0,117.3Z" class="cls-3"></path><path d="M1058.33,692.5a34.72,34.72,0,0,0,0-69.43c-.65,0-1.26.16-1.91.2a38.32,38.32,0,0,0-73.33,0c-.64,0-1.25-.2-1.9-.2a34.72,34.72,0,0,0,0,69.43Z" class="cls-4"></path><circle r="19.95" cy="379.95" cx="1112.04" class="cls-5"></circle><circle r="33.25" cy="260.25" cx="290.78" class="cls-6"></circle><path d="M759.82,886V856.75a27.21,27.21,0,0,0-.32-4v37.12A27.21,27.21,0,0,0,759.82,886Z" class="cls-7"></path><path d="M822,307.32v-42.1a39.47,39.47,0,0,0-.46-5.69V313A39.47,39.47,0,0,0,822,307.32Z" class="cls-7"></path><ellipse ry="24.18" rx="180.39" cy="859.85" cx="611.77" class="cls-8"></ellipse><rect rx="12" height="317.28" width="489.21" y="404.06" x="379.23" class="cls-9"></rect><path d="M754,787.08H661.83V693.31a19.12,19.12,0,0,0-19.07-19.07H595.08A19.12,19.12,0,0,0,576,693.31v93.77H483.83a19.13,19.13,0,0,0-19.07,19.08v25.42a19.13,19.13,0,0,0,19.07,19.08H754a19.13,19.13,0,0,0,19.07-19.08V806.16A19.13,19.13,0,0,0,754,787.08Z" class="cls-9"></path><path d="M754,787.08H661.83V693.31a19.12,19.12,0,0,0-19.07-19.07H595.08A19.12,19.12,0,0,0,576,693.31v93.77H483.83a19.13,19.13,0,0,0-19.07,19.08v25.42a19.13,19.13,0,0,0,19.07,19.08H754a19.13,19.13,0,0,0,19.07-19.08V806.16A19.13,19.13,0,0,0,754,787.08Z" class="cls-10"></path><rect rx="12" height="317.28" width="489.21" y="404.06" x="379.23" class="cls-11"></rect><rect rx="12" height="317.28" width="489.21" y="404.06" x="351.99" class="cls-12"></rect><path d="M819.93,403.41H597.14L416.56,720.69H819.93a21.34,21.34,0,0,0,21.27-21.27V424.68A21.34,21.34,0,0,0,819.93,403.41Z" class="cls-13"></path><path d="M373.26,403.41A21.33,21.33,0,0,0,352,424.68V699.42a21.33,21.33,0,0,0,21.27,21.27h43.3L597.14,403.41Z" class="cls-12"></path><path d="M733.3,787.08H641.12V693.31a19.12,19.12,0,0,0-19.07-19.07H574.37a19.12,19.12,0,0,0-19.07,19.07v93.77H463.12A19.14,19.14,0,0,0,444,806.16v25.42a19.14,19.14,0,0,0,19.08,19.08H733.3a19.13,19.13,0,0,0,19.07-19.08V806.16A19.13,19.13,0,0,0,733.3,787.08Z" class="cls-12"></path><path d="M788.9,697.14H404.29a23.86,23.86,0,0,1-23.84-23.84V450.8A23.86,23.86,0,0,1,404.29,427H788.9a23.87,23.87,0,0,1,23.84,23.84V673.3A23.87,23.87,0,0,1,788.9,697.14ZM404.29,436.49A14.33,14.33,0,0,0,390,450.8V673.3a14.32,14.32,0,0,0,14.31,14.3H788.9a14.31,14.31,0,0,0,14.3-14.3V450.8a14.32,14.32,0,0,0-14.3-14.31Z" class="cls-9"></path><path d="M692.53,650.4H477.47a9.53,9.53,0,0,1-8-14.72L578.76,467.21a9.53,9.53,0,0,1,16.08.12L700.61,635.8a9.53,9.53,0,0,1-8.08,14.6ZM495,631.33H675.29L586.63,490.12Z" class="cls-9"></path><path d="M586.09,591.64h0a9,9,0,0,1-9-8l-4.72-40.91a13.75,13.75,0,0,1,13.67-15.33h0a13.75,13.75,0,0,1,13.66,15.33L595,583.66A9,9,0,0,1,586.09,591.64Z" class="cls-9"></path><circle r="9.26" cy="608.31" cx="586.09" class="cls-9"></circle></g></svg>